<svg width="138" height="138" viewBox="0 0 138 138" fill="none" xmlns="http://www.w3.org/2000/svg">
<g clip-path="url(#clip0_1438_71)">
<path d="M136.086 68.7497L68.75 1.41406L1.41435 68.7497L68.75 136.085L136.086 68.7497Z" stroke="#493BBB" stroke-width="2"/>
<path d="M75.7285 54.4733C74.0095 51.7183 72.4425 49.2143 70.8885 46.7043C70.8282 46.5866 70.7333 46.4901 70.6166 46.4279C70.4998 46.3657 70.3669 46.3407 70.2355 46.3563C70.1455 46.3623 70.0585 46.3563 69.9685 46.3563C68.9355 46.3753 67.7315 46.0763 66.9175 46.5073C66.1455 46.9163 65.7815 48.0943 65.2405 48.9373C65.0155 49.2853 64.7965 49.6373 64.5775 49.9863C64.4914 50.1715 64.3639 50.3345 64.2048 50.4627C64.0457 50.5909 63.8593 50.6808 63.66 50.7255C63.4606 50.7703 63.2537 50.7686 63.0551 50.7207C62.8565 50.6728 62.6715 50.58 62.5145 50.4493C60.9895 49.5253 60.9955 49.5293 61.9415 48.0423C62.8875 46.5553 63.8185 45.0953 64.7195 43.6043C64.8169 43.4081 64.9712 43.2459 65.1623 43.1388C65.3534 43.0318 65.5723 42.9849 65.7905 43.0043C67.7435 43.0303 69.7005 43.0363 71.6535 43.0043C71.8984 42.9879 72.1426 43.0461 72.3539 43.171C72.5652 43.2959 72.7338 43.4818 72.8375 43.7043C74.4375 46.3273 76.0815 48.9303 77.7125 51.5373C77.8475 51.7533 77.9055 52.0453 78.3235 52.1293C78.5035 51.3123 78.7065 50.4943 78.8545 49.6703C78.9605 49.0913 79.0995 48.7433 79.8195 49.0043C80.4119 49.1942 81.0243 49.315 81.6445 49.3643C82.1445 49.4193 82.2175 49.6703 82.1305 50.0853C81.5225 53.0359 80.9175 55.989 80.3155 58.9443C80.2255 59.3823 80.0005 59.4203 79.6075 59.2883C76.8075 58.3423 74.0045 57.409 71.1985 56.4883C70.7475 56.3403 70.5805 56.1443 70.7645 55.6643C70.9995 55.0593 71.2025 54.4413 71.3755 53.8173C71.5235 53.2923 71.7805 53.1993 72.2865 53.3763C73.3355 53.7463 74.4075 54.0553 75.7265 54.4703L75.7285 54.4733Z" fill="#493BBB"/>
<path d="M52.2519 83.3846C51.6363 84.1696 51.1675 85.0591 50.8679 86.0106C50.6679 86.4706 50.5009 86.6256 49.9729 86.4106C47.2789 85.2976 47.2859 85.3196 48.5219 82.6586C49.5099 80.5376 50.4819 78.4106 51.4119 76.2676C51.7309 75.5336 51.9618 75.3086 52.7668 75.8266C55.2898 77.4546 57.8769 78.9776 60.4519 80.5266C60.9409 80.8196 61.1699 81.0576 60.7349 81.6146C60.3578 82.1222 60.0373 82.6695 59.7789 83.2466C59.4859 83.8616 59.1549 83.9156 58.6009 83.5466C57.6609 82.9186 56.6829 82.3466 55.7499 81.7766C55.4499 81.9766 55.5919 82.1766 55.6339 82.3336C56.3449 84.9916 57.0819 87.6466 57.7709 90.3116C57.8051 90.5264 57.9119 90.723 58.0735 90.8685C58.2351 91.0141 58.4417 91.0999 58.6589 91.1116C59.8749 91.3176 61.0919 91.5296 62.2949 91.8036C62.5334 91.8747 62.7883 91.8685 63.0231 91.7859C63.2578 91.7032 63.4604 91.5484 63.6019 91.3436C64.4099 90.4106 65.2909 89.5386 66.1019 88.6086C66.5019 88.1516 66.7869 88.1166 67.2639 88.5286C69.3749 90.3496 69.3849 90.3376 67.5019 92.3706C66.6199 93.3236 65.7259 94.2706 64.8599 95.2346C64.7142 95.4186 64.517 95.555 64.2934 95.6262C64.0698 95.6975 63.8301 95.7004 63.6049 95.6346C61.0659 95.1036 58.5199 94.5956 55.9679 94.1286C55.7203 94.1088 55.4868 94.0058 55.3052 93.8364C55.1237 93.667 55.0048 93.4412 54.9679 93.1956C54.2179 90.3186 53.4329 87.4476 52.6509 84.5776C52.5509 84.2176 52.4099 83.8696 52.2459 83.3966L52.2519 83.3846Z" fill="#493BBB"/>
<path d="M94.2393 71.0109C94.2393 69.6469 94.2263 68.2789 94.2493 66.9109C94.2553 66.5219 94.1593 66.3929 93.7493 66.3959C86.9527 66.4086 80.156 66.4086 73.3593 66.3959C72.9153 66.3959 72.8253 66.5409 72.8283 66.9499C72.8413 70.8409 72.8473 74.7309 72.8283 78.6219C72.8283 79.1469 73.0083 79.2499 73.4843 79.2459C77.5843 79.2269 81.6843 79.2329 85.7843 79.2299C85.8553 79.2299 85.9263 79.2399 86.1893 79.2589C85.891 79.4567 85.6512 79.731 85.495 80.053C85.3389 80.3751 85.272 80.7332 85.3013 81.0899C85.2853 81.4089 85.0313 81.3439 84.8313 81.3439H80.6733C77.5423 81.3439 74.4073 81.3339 71.2733 81.3539C70.8613 81.3539 70.7363 81.2799 70.7363 80.8359C70.7523 75.5026 70.7523 70.1692 70.7363 64.8359C70.7363 64.4049 70.8233 64.2539 71.2903 64.2539C79.4543 64.2699 87.6177 64.2699 95.7803 64.2539C96.1923 64.2539 96.3403 64.3409 96.3303 64.7849C96.2983 66.0749 96.3073 67.3659 96.3303 68.6559C96.3357 68.7953 96.3102 68.9341 96.2557 69.0626C96.2013 69.191 96.1192 69.3058 96.0153 69.3989C95.4583 69.9589 94.9213 70.5379 94.3773 71.1079C94.3323 71.0729 94.2843 71.0399 94.2393 71.0079V71.0109Z" fill="#493BBB"/>
<path d="M86.4511 83.8887C86.6251 82.7367 86.7791 81.7427 86.9181 80.7477C86.957 80.5421 87.0662 80.3565 87.2271 80.2227C89.0941 78.3557 90.9701 76.4997 92.8201 74.6227C93.1261 74.3107 93.2901 74.3297 93.5791 74.6287C94.3791 75.4654 95.1988 76.2837 96.0381 77.0837C96.3051 77.3377 96.2631 77.4837 96.0281 77.7177C94.1261 79.6037 92.2328 81.497 90.3481 83.3977C89.8971 83.8547 89.3181 83.7167 88.8001 83.8357C88.1761 83.9807 87.5221 83.9997 86.8881 84.1257C86.5021 84.1997 86.3881 84.1067 86.4541 83.8937L86.4511 83.8887Z" fill="#493BBB"/>
<path d="M82.84 69.2755C85.27 69.2755 87.699 69.2885 90.129 69.2655C90.57 69.2655 90.705 69.3915 90.654 69.8095C90.59 70.3095 90.879 70.9805 90.525 71.2705C90.225 71.5155 89.585 71.3575 89.093 71.3605C84.593 71.3605 80.093 71.3545 75.593 71.3765C75.072 71.3765 74.917 71.2285 74.982 70.7395C75.043 70.2765 74.782 69.6675 75.082 69.3715C75.382 69.0755 75.982 69.2845 76.453 69.2845C78.58 69.2745 80.707 69.2845 82.831 69.2845L82.84 69.2755Z" fill="#493BBB"/>
<path d="M80.7019 73.5178C82.4299 73.5178 84.1579 73.5308 85.8829 73.5078C86.2829 73.5078 86.4009 73.6238 86.4039 74.0228C86.4229 75.6578 86.4359 75.6578 84.7819 75.6578C81.7249 75.6578 78.6709 75.6478 75.6139 75.6678C75.1139 75.6678 74.9669 75.5328 74.9739 75.0278C74.9999 73.5188 74.9799 73.5188 76.4829 73.5188H80.6989L80.7019 73.5178Z" fill="#493BBB"/>
<path d="M99.1046 74.5016C99.1146 74.6556 99.0047 74.7206 98.9307 74.8016C98.5187 75.2196 98.0847 75.6186 97.6917 76.0506C97.4467 76.3206 97.2916 76.2756 97.0576 76.0346C96.2276 75.1786 95.3806 74.3346 94.5286 73.5056C94.2966 73.2806 94.2936 73.1326 94.5286 72.9136C94.9596 72.5136 95.3617 72.0866 95.7777 71.6716C95.9157 71.5296 96.0447 71.4046 96.2477 71.6106C97.1557 72.5246 98.0686 73.4316 98.9796 74.3426C99.0251 74.3945 99.0672 74.4493 99.1056 74.5066L99.1046 74.5016Z" fill="#493BBB"/>
<path d="M50.0252 69.0988C46.5592 69.0988 43.0932 69.0888 39.6252 69.1088C39.0972 69.1088 38.8692 69.1028 39.0752 68.4488C39.9122 65.7908 40.7032 63.1198 41.4752 60.4418C41.6132 59.9628 41.8292 59.8418 42.3022 59.8418C47.4869 59.8578 52.6722 59.8578 57.8582 59.8418C58.2762 59.8418 58.5182 59.8998 58.6532 60.3668C59.4259 63.0441 60.2239 65.7141 61.0472 68.3768C61.2302 68.9768 61.1312 69.1168 60.4902 69.1108C57.0052 69.0848 53.5132 69.0988 50.0212 69.0988H50.0252ZM50.0702 67.3068C52.7602 67.3068 55.4512 67.2938 58.1412 67.3168C58.6532 67.3168 58.8102 67.2168 58.6492 66.6928C58.1792 65.1998 57.7192 63.7028 57.2942 62.1928C57.1652 61.7418 56.9402 61.6328 56.4992 61.6358C52.2159 61.6518 47.9316 61.6518 43.6462 61.6358C43.5508 61.623 43.4537 61.6293 43.3608 61.6546C43.2678 61.6798 43.1808 61.7234 43.105 61.7828C43.0291 61.8421 42.9659 61.9161 42.9191 62.0002C42.8722 62.0844 42.8427 62.1771 42.8322 62.2728C42.4202 63.7048 41.9992 65.1338 41.5452 66.5528C41.3682 67.1028 41.3782 67.3348 42.0792 67.3248C44.7442 67.2858 47.4082 67.3088 50.0732 67.3088L50.0702 67.3068Z" fill="#493BBB"/>
<path d="M44.4962 52.3127C44.4919 51.5744 44.6341 50.8427 44.9147 50.1599C45.1953 49.477 45.6086 48.8566 46.1307 48.3347C46.6528 47.8127 47.2732 47.3996 47.9562 47.1192C48.6391 46.8388 49.3709 46.6968 50.1091 46.7013C50.8473 46.7058 51.5773 46.8567 52.2568 47.1454C52.9362 47.4341 53.5516 47.8548 54.0673 48.3831C54.583 48.9113 54.9887 49.5367 55.2609 50.2229C55.5332 50.9091 55.6665 51.6426 55.6532 52.3807C55.6267 53.8486 55.0228 55.2469 53.9722 56.2724C52.9216 57.2979 51.5092 57.868 50.0411 57.8591C48.573 57.8501 47.1676 57.2629 46.1296 56.2246C45.0916 55.1863 44.5047 53.7808 44.4962 52.3127ZM50.0092 56.0297C50.5035 56.0458 50.996 55.9635 51.4582 55.7875C51.9203 55.6116 52.3428 55.3454 52.7012 55.0046C53.0595 54.6637 53.3464 54.255 53.5453 53.8022C53.7442 53.3494 53.851 52.8616 53.8595 52.3672C53.8681 51.8727 53.7782 51.3815 53.5951 50.9221C53.412 50.4627 53.1394 50.0443 52.7931 49.6913C52.4468 49.3383 52.0337 49.0577 51.5779 48.8658C51.1221 48.6739 50.6327 48.5746 50.1382 48.5737C49.6439 48.5575 49.1514 48.6398 48.6892 48.8158C48.2271 48.9918 47.8045 49.258 47.4462 49.5988C47.0879 49.9396 46.801 50.3483 46.6021 50.8011C46.4032 51.2539 46.2964 51.7417 46.2878 52.2362C46.2793 52.7306 46.3692 53.2218 46.5523 53.6812C46.7353 54.1406 47.008 54.559 47.3543 54.912C47.7006 55.2651 48.1137 55.5457 48.5695 55.7376C49.0253 55.9294 49.5147 56.0287 50.0092 56.0297Z" fill="#493BBB"/>
</g>
<defs>
<clipPath id="clip0_1438_71">
<rect width="137.5" height="137.5" fill="white"/>
</clipPath>
</defs>
</svg>
