<svg width="138" height="138" viewBox="0 0 138 138" fill="none" xmlns="http://www.w3.org/2000/svg">
<g clip-path="url(#clip0_1438_93)">
<path d="M136.086 68.7497L68.75 1.41406L1.41435 68.7497L68.75 136.085L136.086 68.7497Z" stroke="#493BBB" stroke-width="2"/>
<path d="M75.4839 81.5922C75.4839 79.0402 75.4969 76.4922 75.4709 73.9392C75.448 73.7747 75.4905 73.6078 75.5895 73.4744C75.6884 73.341 75.8359 73.2519 75.9999 73.2262C78.4209 72.4382 80.8329 71.6262 83.2479 70.8182C83.5205 70.719 83.819 70.7168 84.0929 70.8122C86.5209 71.6352 88.9549 72.4362 91.3819 73.2522C91.7079 73.3684 92.064 73.3684 92.3899 73.2522C94.7829 72.4452 97.1849 71.6602 99.5739 70.8372C100.03 70.6812 100.068 70.8052 100.065 71.2172C100.052 76.3372 100.052 81.4572 100.065 86.5772C100.077 86.6501 100.075 86.7248 100.058 86.7968C100.041 86.8688 100.01 86.9368 99.9667 86.9967C99.9233 87.0566 99.8685 87.1073 99.8054 87.1459C99.7422 87.1844 99.6721 87.21 99.5989 87.2212C97.2316 87.9898 94.8689 88.7745 92.5109 89.5752C92.1054 89.7252 91.6595 89.7252 91.2539 89.5752C88.8769 88.7682 86.4909 87.9932 84.1149 87.1892C83.824 87.0847 83.5058 87.0847 83.2149 87.1892C80.8416 87.9872 78.4623 88.7798 76.0769 89.5672C75.6769 89.7005 75.4769 89.5538 75.4769 89.1272V81.5832L75.4839 81.5922ZM90.8839 81.2602C90.8839 79.4002 90.8739 77.5442 90.8939 75.6842C90.9159 75.5439 90.8818 75.4006 90.7989 75.2853C90.7159 75.17 90.5909 75.092 90.4509 75.0682C88.6869 74.4972 86.9259 73.9162 85.1709 73.3102C84.7339 73.1602 84.6479 73.2622 84.6509 73.6962C84.6636 77.3775 84.6636 81.0588 84.6509 84.7402C84.6305 84.8906 84.6699 85.043 84.7606 85.1647C84.8512 85.2864 84.986 85.3677 85.1359 85.3912C86.8999 85.9592 88.6586 86.5452 90.4119 87.1492C90.8269 87.2932 90.8999 87.1812 90.8969 86.7852C90.8809 84.9442 90.8909 83.1042 90.8909 81.2632L90.8839 81.2602ZM82.6769 79.2162C82.6769 77.3792 82.6609 75.5412 82.6869 73.7042C82.6929 73.2042 82.5559 73.1742 82.1319 73.3242C80.7439 73.8122 79.3489 74.2788 77.9469 74.7242C77.806 74.7477 77.68 74.826 77.5963 74.9418C77.5126 75.0577 77.478 75.2019 77.4999 75.3432C77.5093 79.0372 77.5093 82.7312 77.4999 86.4252C77.4999 86.8142 77.5669 86.9482 77.9849 86.8012C79.4076 86.3065 80.8379 85.8312 82.2759 85.3752C82.3416 85.3641 82.4044 85.34 82.4606 85.3044C82.5169 85.2687 82.5654 85.2222 82.6034 85.1675C82.6414 85.1128 82.6681 85.0511 82.6819 84.986C82.6958 84.9208 82.6965 84.8536 82.6839 84.7882C82.6709 82.9312 82.6779 81.0752 82.6779 79.2182L82.6769 79.2162ZM92.8709 81.2262C92.8709 83.0632 92.8869 84.9042 92.8609 86.7422C92.8549 87.2362 92.9849 87.2752 93.4159 87.1252C94.8159 86.6312 96.2359 86.1652 97.6519 85.7092C97.7749 85.6867 97.8842 85.6172 97.9568 85.5155C98.0294 85.4137 98.0596 85.2877 98.0409 85.1642C98.0316 81.4308 98.0316 77.6995 98.0409 73.9702C98.0409 73.5702 97.9359 73.5202 97.5719 73.6482C96.1653 74.1395 94.7533 74.6128 93.3359 75.0682C93.1868 75.0918 93.053 75.1736 92.964 75.2956C92.875 75.4176 92.8379 75.5699 92.8609 75.7192C92.8829 77.5562 92.8709 79.3972 92.8709 81.2352V81.2262Z" fill="#493BBB"/>
<path d="M79.4361 60.3735C77.7361 57.6425 76.1791 55.1605 74.6361 52.6735C74.5762 52.5567 74.482 52.4611 74.3661 52.3994C74.2503 52.3378 74.1184 52.313 73.9881 52.3285C73.8991 52.3345 73.8131 52.3285 73.7231 52.3285C72.6991 52.3475 71.5061 52.0505 70.6991 52.4785C69.9331 52.8835 69.5731 54.0515 69.0371 54.8865C68.8141 55.2315 68.5971 55.5785 68.3801 55.9265C68.2948 56.1102 68.1684 56.2718 68.0107 56.3989C67.853 56.526 67.6682 56.6152 67.4706 56.6595C67.273 56.7039 67.0678 56.7023 66.8709 56.6547C66.674 56.6072 66.4907 56.5151 66.3351 56.3855C64.8231 55.4695 64.8291 55.4735 65.7671 53.9995C66.7051 52.5255 67.6271 51.0805 68.5201 49.5995C68.6168 49.4044 68.7703 49.2432 68.9604 49.137C69.1505 49.0308 69.3682 48.9846 69.5851 49.0045C71.5211 49.0325 73.4611 49.0385 75.4011 49.0045C75.6451 48.9881 75.8883 49.0462 76.0986 49.1712C76.3088 49.2963 76.476 49.4822 76.5781 49.7045C78.1671 52.3045 79.7941 54.8855 81.4111 57.4695C81.5451 57.6835 81.6021 57.9695 82.0171 58.0565C82.1961 57.2465 82.3971 56.4355 82.5431 55.6195C82.6481 55.0455 82.7851 54.7005 83.5001 54.9595C84.0873 55.1478 84.6943 55.2676 85.3091 55.3165C85.8091 55.3705 85.8771 55.6165 85.7911 56.0315C85.1911 58.9568 84.5911 61.8842 83.9911 64.8135C83.9021 65.2475 83.6781 65.2855 83.2911 65.1545C80.5157 64.2165 77.7371 63.2915 74.9551 62.3795C74.5081 62.2325 74.3431 62.0385 74.5241 61.5625C74.7571 60.9625 74.9581 60.3505 75.1301 59.7315C75.2771 59.2115 75.5301 59.1195 76.0301 59.2945C77.0701 59.6615 78.1301 59.9675 79.4401 60.3795L79.4361 60.3735Z" fill="#493BBB"/>
<path d="M60.293 67.1852C60.293 65.8322 60.28 64.4772 60.303 63.1242C60.309 62.7382 60.214 62.6102 59.803 62.6142C53.0657 62.6269 46.3283 62.6269 39.591 62.6142C39.151 62.6142 39.061 62.7582 39.065 63.1632C39.078 67.0202 39.084 70.8772 39.065 74.7332C39.065 75.2532 39.244 75.3552 39.716 75.3522C43.78 75.3332 47.844 75.3392 51.916 75.3362C51.986 75.3362 52.056 75.3462 52.316 75.3652C52.0203 75.5613 51.7826 75.8332 51.6278 76.1524C51.473 76.4717 51.4068 76.8266 51.436 77.1802C51.42 77.4962 51.168 77.4322 50.97 77.4322H46.848C43.748 77.4322 40.637 77.4222 37.533 77.4422C37.125 77.4422 37 77.3692 37 76.9282C37.016 71.6422 37.016 66.3552 37 61.0672C37 60.6402 37.086 60.4902 37.549 60.4902C45.6423 60.5062 53.7343 60.5062 61.825 60.4902C62.233 60.4902 62.38 60.5762 62.371 61.0162C62.339 62.2952 62.349 63.5742 62.371 64.8542C62.3762 64.9925 62.3509 65.1303 62.2968 65.2577C62.2427 65.3851 62.1612 65.499 62.058 65.5912C61.506 66.1462 60.973 66.7202 60.434 67.2852C60.389 67.2502 60.342 67.2182 60.297 67.1852H60.293Z" fill="#493BBB"/>
<path d="M52.5731 79.952C52.7451 78.81 52.8981 77.824 53.0361 76.839C53.0753 76.6356 53.1833 76.4519 53.3421 76.319C55.1921 74.469 57.0521 72.628 58.8861 70.765C59.1861 70.456 59.3521 70.475 59.6391 70.771C60.4305 71.6003 61.2428 72.4117 62.0761 73.205C62.3411 73.457 62.2991 73.605 62.0661 73.833C60.1808 75.6996 58.3041 77.5763 56.4361 79.463C55.9891 79.916 55.4151 79.779 54.9021 79.897C54.2831 80.041 53.6361 80.06 53.0071 80.184C52.6241 80.257 52.5131 80.165 52.5761 79.954L52.5731 79.952Z" fill="#493BBB"/>
<path d="M48.9937 65.4658C51.4017 65.4658 53.8107 65.4788 56.2187 65.4558C56.6557 65.4558 56.7897 65.5798 56.7387 65.9948C56.6747 66.4888 56.9617 67.1558 56.6107 67.4428C56.3107 67.6848 55.6787 67.5287 55.1907 67.5317C50.7307 67.5317 46.2717 67.5258 41.8087 67.5478C41.2917 67.5478 41.1387 67.4008 41.2027 66.9158C41.2637 66.4568 41.0027 65.8537 41.3027 65.5597C41.6027 65.2657 42.2027 65.4738 42.6617 65.4738C44.7707 65.4638 46.8787 65.4738 48.9847 65.4738L48.9937 65.4658Z" fill="#493BBB"/>
<path d="M46.8725 69.6721C48.5855 69.6721 50.2985 69.6851 52.0085 69.6621C52.4085 69.6621 52.5225 69.7771 52.5255 70.1721C52.5445 71.7931 52.5575 71.7931 50.9175 71.7931C47.8865 71.7931 44.8595 71.7831 41.8295 71.8031C41.3295 71.8031 41.1885 71.6691 41.1945 71.1681C41.2205 69.6681 41.2005 69.6681 42.6945 69.6681H46.8735L46.8725 69.6721Z" fill="#493BBB"/>
<path d="M65.1198 70.6462C65.1298 70.7992 65.0198 70.8632 64.9478 70.9392C64.5398 71.3542 64.1088 71.7492 63.7198 72.1772C63.4778 72.4452 63.3198 72.4002 63.0918 72.1612C62.2688 71.3122 61.4298 70.4772 60.5848 69.6542C60.3548 69.4312 60.3518 69.2842 60.5848 69.0672C61.0118 68.6672 61.4108 68.2472 61.8228 67.8362C61.9598 67.6962 62.0878 67.5712 62.2888 67.7752C63.1888 68.6812 64.0948 69.5812 64.9968 70.4832C65.0416 70.5348 65.083 70.5893 65.1208 70.6462H65.1198Z" fill="#493BBB"/>
</g>
<defs>
<clipPath id="clip0_1438_93">
<rect width="137.5" height="137.5" fill="white"/>
</clipPath>
</defs>
</svg>
