<svg width="138" height="138" viewBox="0 0 138 138" fill="none" xmlns="http://www.w3.org/2000/svg">
<g clip-path="url(#clip0_1438_60)">
<path d="M136.086 68.7497L68.75 1.41406L1.41435 68.7497L68.75 136.085L136.086 68.7497Z" stroke="#493BBB" stroke-width="2"/>
<path d="M36.0191 63.5922C36.0191 61.0402 36.0321 58.4922 36.0061 55.9392C35.9831 55.7747 36.0257 55.6078 36.1246 55.4744C36.2236 55.341 36.371 55.2519 36.5351 55.2262C38.9561 54.4382 41.3681 53.6262 43.7831 52.8182C44.0557 52.719 44.3541 52.7168 44.6281 52.8122C47.0561 53.6352 49.4901 54.4362 51.9171 55.2522C52.243 55.3684 52.5992 55.3684 52.9251 55.2522C55.3181 54.4452 57.7201 53.6602 60.1091 52.8372C60.5651 52.6812 60.6031 52.8052 60.6001 53.2172C60.5874 58.3372 60.5874 63.4572 60.6001 68.5772C60.6123 68.6501 60.61 68.7248 60.5931 68.7968C60.5762 68.8688 60.5452 68.9368 60.5019 68.9967C60.4585 69.0566 60.4037 69.1073 60.3405 69.1459C60.2774 69.1844 60.2072 69.21 60.1341 69.2212C57.7668 69.9898 55.4041 70.7745 53.0461 71.5752C52.6405 71.7252 52.1947 71.7252 51.7891 71.5752C49.4121 70.7682 47.0261 69.9932 44.6501 69.1892C44.3592 69.0847 44.041 69.0847 43.7501 69.1892C41.3768 69.9872 38.9974 70.7798 36.6121 71.5672C36.2121 71.7005 36.0121 71.5538 36.0121 71.1272V63.5832L36.0191 63.5922ZM51.4191 63.2602C51.4191 61.4002 51.4091 59.5442 51.4291 57.6842C51.4511 57.5439 51.4169 57.4006 51.334 57.2853C51.2511 57.17 51.1261 57.092 50.9861 57.0682C49.2221 56.4972 47.4611 55.9162 45.7061 55.3102C45.2691 55.1602 45.1831 55.2622 45.1861 55.6962C45.1988 59.3775 45.1988 63.0588 45.1861 66.7402C45.1657 66.8906 45.205 67.043 45.2957 67.1647C45.3864 67.2864 45.5212 67.3677 45.6711 67.3912C47.4351 67.9592 49.1938 68.5452 50.9471 69.1492C51.3621 69.2932 51.4351 69.1812 51.4321 68.7852C51.4161 66.9442 51.4261 65.1042 51.4261 63.2632L51.4191 63.2602ZM43.2121 61.2162C43.2121 59.3792 43.1961 57.5412 43.2221 55.7042C43.2281 55.2042 43.0911 55.1742 42.6671 55.3242C41.2791 55.8122 39.8841 56.2788 38.4821 56.7242C38.3411 56.7477 38.2151 56.826 38.1314 56.9418C38.0477 57.0577 38.0131 57.2019 38.0351 57.3432C38.0444 61.0372 38.0444 64.7312 38.0351 68.4252C38.0351 68.8142 38.1021 68.9482 38.5201 68.8012C39.9428 68.3065 41.3731 67.8312 42.8111 67.3752C42.8768 67.3641 42.9396 67.34 42.9958 67.3044C43.052 67.2687 43.1006 67.2222 43.1386 67.1675C43.1766 67.1128 43.2033 67.0511 43.2171 66.986C43.2309 66.9208 43.2316 66.8536 43.2191 66.7882C43.2061 64.9312 43.2131 63.0752 43.2131 61.2182L43.2121 61.2162ZM53.4061 63.2262C53.4061 65.0632 53.4221 66.9042 53.3961 68.7422C53.3901 69.2362 53.5201 69.2752 53.9511 69.1252C55.3511 68.6312 56.7711 68.1652 58.1871 67.7092C58.31 67.6867 58.4194 67.6172 58.492 67.5155C58.5646 67.4137 58.5948 67.2877 58.5761 67.1642C58.5668 63.4308 58.5668 59.6995 58.5761 55.9702C58.5761 55.5702 58.4711 55.5202 58.1071 55.6482C56.7004 56.1395 55.2884 56.6128 53.8711 57.0682C53.7219 57.0918 53.5882 57.1736 53.4992 57.2956C53.4101 57.4176 53.3731 57.5699 53.3961 57.7192C53.4181 59.5562 53.4061 61.3972 53.4061 63.2352V63.2262Z" fill="#493BBB"/>
<path d="M77.9204 54.3735C76.2204 51.6425 74.6634 49.1605 73.1204 46.6735C73.0605 46.5567 72.9664 46.4611 72.8505 46.3994C72.7347 46.3378 72.6028 46.313 72.4724 46.3285C72.3834 46.3345 72.2974 46.3285 72.2074 46.3285C71.1834 46.3475 69.9904 46.0505 69.1834 46.4785C68.4174 46.8835 68.0574 48.0515 67.5214 48.8865C67.2984 49.2315 67.0814 49.5785 66.8644 49.9265C66.7791 50.1102 66.6527 50.2718 66.4951 50.3989C66.3374 50.526 66.1526 50.6152 65.955 50.6595C65.7573 50.7039 65.5522 50.7023 65.3553 50.6547C65.1584 50.6072 64.9751 50.5151 64.8194 50.3855C63.3074 49.4695 63.3134 49.4735 64.2514 47.9995C65.1894 46.5255 66.1114 45.0805 67.0044 43.5995C67.1012 43.4044 67.2547 43.2432 67.4448 43.137C67.6349 43.0308 67.8526 42.9846 68.0694 43.0045C70.0054 43.0325 71.9454 43.0385 73.8854 43.0045C74.1295 42.9881 74.3727 43.0462 74.5829 43.1712C74.7931 43.2963 74.9604 43.4822 75.0624 43.7045C76.6514 46.3045 78.2784 48.8855 79.8954 51.4695C80.0294 51.6835 80.0864 51.9695 80.5014 52.0565C80.6804 51.2465 80.8814 50.4355 81.0274 49.6195C81.1324 49.0455 81.2694 48.7005 81.9844 48.9595C82.5717 49.1478 83.1787 49.2676 83.7934 49.3165C84.2934 49.3705 84.3614 49.6165 84.2754 50.0315C83.6754 52.9568 83.0754 55.8842 82.4754 58.8135C82.3864 59.2475 82.1624 59.2855 81.7754 59.1545C79.0001 58.2165 76.2214 57.2915 73.4394 56.3795C72.9924 56.2325 72.8274 56.0385 73.0084 55.5625C73.2414 54.9625 73.4424 54.3505 73.6144 53.7315C73.7614 53.2115 74.0144 53.1195 74.5144 53.2945C75.5544 53.6615 76.6144 53.9675 77.9244 54.3795L77.9204 54.3735Z" fill="#493BBB"/>
<path d="M54.6489 83.0313C54.0391 83.8085 53.5743 84.6892 53.2769 85.6313C53.0819 86.0873 52.9129 86.2403 52.3899 86.0233C49.7199 84.9233 49.7259 84.9423 50.9509 82.3033C51.9299 80.2033 52.8939 78.0923 53.8159 75.9683C54.1319 75.2413 54.3609 75.0173 55.1589 75.5313C57.6589 77.1453 60.2249 78.6543 62.7769 80.1853C63.2619 80.4753 63.4879 80.7113 63.0579 81.2633C62.6845 81.7663 62.3669 82.3085 62.1109 82.8803C61.8209 83.4893 61.4919 83.5443 60.9429 83.1803C60.0119 82.5583 59.0429 81.9933 58.1169 81.4253C57.8169 81.6253 57.9609 81.8173 58.0019 81.9773C58.7069 84.6123 59.4379 87.2443 60.1199 89.8853C60.1537 90.0983 60.2595 90.2934 60.4196 90.4378C60.5797 90.5823 60.7846 90.6676 60.9999 90.6793C62.2059 90.8793 63.4119 91.0943 64.5999 91.3653C64.837 91.4368 65.0906 91.4311 65.3242 91.3491C65.5579 91.2672 65.7595 91.1132 65.8999 90.9093C66.6999 89.9843 67.5749 89.1193 68.3789 88.1973C68.7789 87.7443 69.0579 87.7093 69.5309 88.1173C71.6239 89.9233 71.6309 89.9103 69.7669 91.9263C68.8929 92.8703 68.0059 93.8053 67.1479 94.7653C67.004 94.9483 66.8087 95.0841 66.587 95.1554C66.3654 95.2266 66.1275 95.2301 65.9039 95.1653C63.3869 94.6393 60.8639 94.1353 58.3339 93.6723C58.0886 93.6524 57.8571 93.5502 57.6771 93.3823C57.4971 93.2144 57.379 92.9907 57.3419 92.7473C56.5989 89.8953 55.8199 87.0473 55.0419 84.2043C54.9419 83.8473 54.8029 83.5043 54.6419 83.0333L54.6489 83.0313Z" fill="#493BBB"/>
<path d="M96.2696 70.7673C96.2696 69.4143 96.2566 68.0593 96.2796 66.7063C96.2856 66.3203 96.1906 66.1923 95.7796 66.1963C89.0422 66.2089 82.3049 66.2089 75.5676 66.1963C75.1276 66.1963 75.0376 66.3403 75.0416 66.7453C75.0546 70.6023 75.0606 74.4593 75.0416 78.3153C75.0416 78.8353 75.2206 78.9373 75.6926 78.9343C79.7566 78.9153 83.8206 78.9213 87.8926 78.9183C87.9626 78.9183 88.0326 78.9283 88.2926 78.9473C87.9968 79.1433 87.7592 79.4152 87.6044 79.7344C87.4496 80.0537 87.3834 80.4087 87.4126 80.7623C87.3966 81.0783 87.1446 81.0143 86.9466 81.0143H82.8246C79.7246 81.0143 76.6136 81.0043 73.5096 81.0243C73.1016 81.0243 72.9766 80.9513 72.9766 80.5103C72.9926 75.2243 72.9926 69.9373 72.9766 64.6493C72.9766 64.2223 73.0626 64.0723 73.5256 64.0723C81.6189 64.0883 89.7109 64.0883 97.8016 64.0723C98.2096 64.0723 98.3566 64.1583 98.3476 64.5983C98.3156 65.8773 98.3256 67.1563 98.3476 68.4363C98.3528 68.5746 98.3275 68.7123 98.2734 68.8397C98.2193 68.9671 98.1377 69.081 98.0346 69.1733C97.4826 69.7283 96.9496 70.3023 96.4106 70.8673C96.3656 70.8323 96.3186 70.8003 96.2736 70.7673H96.2696Z" fill="#493BBB"/>
<path d="M88.5487 83.534C88.7207 82.392 88.8737 81.406 89.0117 80.421C89.0508 80.2176 89.1589 80.034 89.3177 79.901C91.1677 78.051 93.0277 76.21 94.8617 74.347C95.1617 74.038 95.3277 74.057 95.6147 74.353C96.406 75.1824 97.2184 75.9937 98.0517 76.787C98.3167 77.039 98.2747 77.187 98.0417 77.415C96.1564 79.2817 94.2797 81.1584 92.4117 83.045C91.9647 83.498 91.3907 83.361 90.8777 83.479C90.2587 83.623 89.6117 83.642 88.9827 83.766C88.5997 83.839 88.4887 83.747 88.5517 83.536L88.5487 83.534Z" fill="#493BBB"/>
<path d="M84.9703 69.0478C87.3783 69.0478 89.7873 69.0608 92.1953 69.0378C92.6323 69.0378 92.7663 69.1618 92.7153 69.5768C92.6513 70.0708 92.9383 70.7378 92.5873 71.0248C92.2873 71.2668 91.6553 71.1108 91.1673 71.1138C86.7073 71.1138 82.2483 71.1078 77.7853 71.1298C77.2683 71.1298 77.1153 70.9828 77.1793 70.4978C77.2403 70.0388 76.9793 69.4358 77.2793 69.1418C77.5793 68.8478 78.1793 69.0558 78.6383 69.0558C80.7473 69.0458 82.8553 69.0558 84.9613 69.0558L84.9703 69.0478Z" fill="#493BBB"/>
<path d="M82.8491 73.2522C84.5621 73.2522 86.2751 73.2652 87.9851 73.2422C88.3851 73.2422 88.4991 73.3572 88.5021 73.7522C88.5211 75.3732 88.5341 75.3732 86.8941 75.3732C83.8631 75.3732 80.8361 75.3632 77.8061 75.3832C77.3061 75.3832 77.1651 75.2492 77.1711 74.7482C77.1971 73.2482 77.1771 73.2482 78.6711 73.2482H82.8501L82.8491 73.2522Z" fill="#493BBB"/>
<path d="M101.096 74.2283C101.106 74.3813 100.996 74.4453 100.924 74.5213C100.516 74.9363 100.085 75.3313 99.6963 75.7593C99.4543 76.0273 99.2963 75.9823 99.0683 75.7433C98.2453 74.8943 97.4063 74.0593 96.5613 73.2363C96.3313 73.0133 96.3283 72.8663 96.5613 72.6493C96.9883 72.2493 97.3873 71.8293 97.7993 71.4183C97.9363 71.2783 98.0643 71.1533 98.2653 71.3573C99.1653 72.2633 100.071 73.1633 100.973 74.0653C101.018 74.1169 101.06 74.1713 101.097 74.2283H101.096Z" fill="#493BBB"/>
</g>
<defs>
<clipPath id="clip0_1438_60">
<rect width="137.5" height="137.5" fill="white"/>
</clipPath>
</defs>
</svg>
