<svg width="138" height="138" viewBox="0 0 138 138" fill="none" xmlns="http://www.w3.org/2000/svg">
<g clip-path="url(#clip0_1438_228)">
<path d="M136.086 68.7497L68.75 1.41406L1.41435 68.7497L68.75 136.085L136.086 68.7497Z" stroke="#493BBB" stroke-width="2"/>
<path d="M78.8096 62.4733C77.0906 59.7183 75.5236 57.2143 73.9696 54.7043C73.9092 54.5866 73.8143 54.4901 73.6976 54.4279C73.5809 54.3657 73.4479 54.3407 73.3166 54.3563C73.2266 54.3623 73.1396 54.3563 73.0496 54.3563C72.0166 54.3753 70.8126 54.0763 69.9986 54.5073C69.2266 54.9163 68.8626 56.0943 68.3216 56.9373C68.0966 57.2853 67.8776 57.6373 67.6586 57.9863C67.5724 58.1715 67.4449 58.3345 67.2858 58.4627C67.1267 58.5909 66.9403 58.6808 66.741 58.7255C66.5417 58.7703 66.3347 58.7686 66.1361 58.7207C65.9375 58.6728 65.7526 58.58 65.5956 58.4493C64.0706 57.5253 64.0766 57.5293 65.0226 56.0423C65.9686 54.5553 66.8996 53.0953 67.8006 51.6043C67.8979 51.4081 68.0523 51.2459 68.2433 51.1388C68.4344 51.0318 68.6534 50.9849 68.8716 51.0043C70.8246 51.0303 72.7816 51.0363 74.7346 51.0043C74.9795 50.9879 75.2236 51.0461 75.4349 51.171C75.6462 51.2959 75.8148 51.4818 75.9186 51.7043C77.5186 54.3273 79.1626 56.9303 80.7936 59.5373C80.9286 59.7533 80.9866 60.0453 81.4046 60.1293C81.5846 59.3123 81.7876 58.4943 81.9356 57.6703C82.0416 57.0913 82.1806 56.7433 82.9006 57.0043C83.493 57.1942 84.1054 57.315 84.7256 57.3643C85.2256 57.4193 85.2986 57.6703 85.2116 58.0853C84.6036 61.0359 83.9986 63.989 83.3966 66.9443C83.3066 67.3823 83.0816 67.4203 82.6886 67.2883C79.8886 66.3423 77.0856 65.409 74.2796 64.4883C73.8286 64.3403 73.6616 64.1443 73.8456 63.6643C74.0806 63.0593 74.2836 62.4413 74.4566 61.8173C74.6046 61.2923 74.8616 61.1993 75.3676 61.3763C76.4166 61.7463 77.4886 62.0553 78.8076 62.4703L78.8096 62.4733Z" fill="#493BBB"/>
<path d="M90.8328 87.5832C87.3668 87.5832 83.9008 87.5732 80.4328 87.5932C79.9048 87.5932 79.6768 87.5872 79.8828 86.9332C80.7198 84.2752 81.5108 81.6042 82.2828 78.9262C82.4208 78.4472 82.6368 78.3262 83.1098 78.3262C88.2945 78.3422 93.4798 78.3422 98.6658 78.3262C99.0838 78.3262 99.3258 78.3842 99.4608 78.8512C100.234 81.5285 101.032 84.1985 101.855 86.8612C102.038 87.4612 101.939 87.6012 101.298 87.5952C97.8128 87.5692 94.3208 87.5832 90.8288 87.5832H90.8328ZM90.8778 85.7912C93.5678 85.7912 96.2588 85.7782 98.9488 85.8012C99.4608 85.8012 99.6178 85.7012 99.4568 85.1772C98.9868 83.6842 98.5268 82.1872 98.1018 80.6772C97.9728 80.2262 97.7478 80.1172 97.3068 80.1202C93.0235 80.1362 88.7392 80.1362 84.4538 80.1202C84.3584 80.1073 84.2613 80.1137 84.1684 80.139C84.0754 80.1642 83.9885 80.2078 83.9126 80.2671C83.8368 80.3265 83.7735 80.4004 83.7267 80.4846C83.6799 80.5687 83.6503 80.6614 83.6398 80.7572C83.2278 82.1892 82.8068 83.6182 82.3528 85.0372C82.1758 85.5872 82.1858 85.8192 82.8868 85.8092C85.5518 85.7702 88.2158 85.7932 90.8808 85.7932L90.8778 85.7912Z" fill="#493BBB"/>
<path d="M85.3038 70.797C85.2995 70.0588 85.4418 69.3271 85.7223 68.6442C86.0029 67.9614 86.4162 67.341 86.9383 66.8191C87.4604 66.2971 88.0809 65.884 88.7638 65.6036C89.4467 65.3232 90.1785 65.1812 90.9167 65.1857C91.6549 65.1901 92.3849 65.3411 93.0644 65.6298C93.7438 65.9185 94.3592 66.3392 94.8749 66.8674C95.3906 67.3957 95.7963 68.0211 96.0686 68.7073C96.3408 69.3935 96.4741 70.1269 96.4608 70.865C96.4344 72.3329 95.8304 73.7312 94.7798 74.7568C93.7293 75.7823 92.3168 76.3524 90.8487 76.3434C89.3806 76.3345 87.9752 75.7472 86.9372 74.709C85.8993 73.6707 85.3124 72.2651 85.3038 70.797ZM90.8168 74.514C91.3111 74.5302 91.8036 74.4479 92.2658 74.2719C92.7279 74.0959 93.1505 73.8298 93.5088 73.4889C93.8671 73.1481 94.154 72.7394 94.3529 72.2866C94.5518 71.8338 94.6586 71.346 94.6672 70.8515C94.6757 70.3571 94.5858 69.8659 94.4027 69.4065C94.2197 68.9471 93.947 68.5287 93.6007 68.1757C93.2544 67.8227 92.8413 67.542 92.3855 67.3502C91.9297 67.1583 91.4403 67.059 90.9458 67.058C90.4515 67.0419 89.959 67.1242 89.4968 67.3002C89.0347 67.4762 88.6121 67.7423 88.2538 68.0832C87.8955 68.424 87.6086 68.8327 87.4097 69.2855C87.2108 69.7383 87.104 70.2261 87.0955 70.7205C87.0869 71.215 87.1768 71.7062 87.3599 72.1656C87.543 72.625 87.8156 73.0434 88.1619 73.3964C88.5082 73.7494 88.9213 74.0301 89.3771 74.2219C89.8329 74.4138 90.3223 74.5131 90.8168 74.514Z" fill="#493BBB"/>
<path d="M59.503 67.0246C59.503 65.6606 59.49 64.2926 59.513 62.9246C59.519 62.5356 59.423 62.4066 59.013 62.4096C52.2163 62.4222 45.4197 62.4222 38.623 62.4096C38.179 62.4096 38.089 62.5546 38.092 62.9636C38.105 66.8546 38.111 70.7446 38.092 74.6356C38.092 75.1606 38.272 75.2636 38.748 75.2596C42.848 75.2406 46.948 75.2466 51.048 75.2436C51.119 75.2436 51.19 75.2536 51.453 75.2726C51.1547 75.4704 50.9149 75.7446 50.7587 76.0667C50.6025 76.3888 50.5356 76.7468 50.565 77.1036C50.549 77.4226 50.295 77.3576 50.095 77.3576H45.937C42.806 77.3576 39.671 77.3476 36.537 77.3676C36.125 77.3676 36 77.2936 36 76.8496C36.016 71.5162 36.016 66.1829 36 60.8496C36 60.4186 36.087 60.2676 36.554 60.2676C44.718 60.2836 52.8813 60.2836 61.044 60.2676C61.456 60.2676 61.604 60.3546 61.594 60.7986C61.562 62.0886 61.571 63.3796 61.594 64.6696C61.5993 64.809 61.5739 64.9478 61.5194 65.0762C61.465 65.2046 61.3829 65.3195 61.279 65.4126C60.722 65.9726 60.185 66.5516 59.641 67.1216C59.596 67.0866 59.548 67.0536 59.503 67.0216V67.0246Z" fill="#493BBB"/>
<path d="M51.7148 79.9024C51.8888 78.7504 52.0428 77.7564 52.1818 76.7614C52.2207 76.5558 52.3299 76.3701 52.4908 76.2364C54.3578 74.3694 56.2338 72.5134 58.0838 70.6364C58.3898 70.3244 58.5538 70.3434 58.8428 70.6424C59.6428 71.479 60.4625 72.2974 61.3018 73.0974C61.5688 73.3514 61.5268 73.4974 61.2918 73.7314C59.3898 75.6174 57.4965 77.5107 55.6118 79.4114C55.1608 79.8684 54.5818 79.7304 54.0638 79.8494C53.4398 79.9944 52.7858 80.0134 52.1518 80.1394C51.7658 80.2134 51.6518 80.1204 51.7178 79.9074L51.7148 79.9024Z" fill="#493BBB"/>
<path d="M48.1037 65.2892C50.5337 65.2892 52.9627 65.3022 55.3927 65.2792C55.8337 65.2792 55.9687 65.4052 55.9177 65.8232C55.8537 66.3232 56.1427 66.9942 55.7887 67.2842C55.4887 67.5292 54.8487 67.3712 54.3567 67.3742C49.8567 67.3742 45.3567 67.3682 40.8567 67.3902C40.3357 67.3902 40.1807 67.2422 40.2457 66.7532C40.3067 66.2902 40.0457 65.6812 40.3457 65.3852C40.6457 65.0892 41.2457 65.2982 41.7167 65.2982C43.8437 65.2882 45.9707 65.2982 48.0947 65.2982L48.1037 65.2892Z" fill="#493BBB"/>
<path d="M45.9655 69.5315C47.6935 69.5315 49.4215 69.5445 51.1465 69.5215C51.5465 69.5215 51.6645 69.6375 51.6675 70.0365C51.6865 71.6715 51.6995 71.6715 50.0455 71.6715C46.9885 71.6715 43.9345 71.6615 40.8775 71.6815C40.3775 71.6815 40.2305 71.5465 40.2375 71.0415C40.2635 69.5325 40.2435 69.5325 41.7465 69.5325H45.9625L45.9655 69.5315Z" fill="#493BBB"/>
<path d="M64.3683 70.5153C64.3783 70.6693 64.2683 70.7343 64.1943 70.8153C63.7823 71.2333 63.3483 71.6323 62.9553 72.0643C62.7103 72.3343 62.5553 72.2893 62.3213 72.0483C61.4913 71.1923 60.6443 70.3483 59.7923 69.5193C59.5603 69.2943 59.5573 69.1463 59.7923 68.9273C60.2233 68.5273 60.6253 68.1003 61.0413 67.6853C61.1793 67.5433 61.3083 67.4183 61.5113 67.6243C62.4193 68.5383 63.3323 69.4453 64.2433 70.3563C64.2888 70.4082 64.3309 70.463 64.3693 70.5203L64.3683 70.5153Z" fill="#493BBB"/>
</g>
<defs>
<clipPath id="clip0_1438_228">
<rect width="137.5" height="137.5" fill="white"/>
</clipPath>
</defs>
</svg>
