<svg width="138" height="138" viewBox="0 0 138 138" fill="none" xmlns="http://www.w3.org/2000/svg">
<g clip-path="url(#clip0_1438_239)">
<path d="M136.086 68.7497L68.75 1.41406L1.41435 68.7497L68.75 136.085L136.086 68.7497Z" stroke="#493BBB" stroke-width="2"/>
<path d="M52.0221 68.671C52.0221 61.471 52.0361 54.271 52.0021 47.078C52.0001 46.249 52.1811 46 53.0521 46C59.2001 46.041 65.3361 46.029 71.4781 46.009C71.7744 45.9944 72.0703 46.0445 72.3453 46.1559C72.6202 46.2673 72.8676 46.4373 73.0701 46.654C77.1028 50.7207 81.1528 54.7713 85.2201 58.806C85.44 59.0059 85.6138 59.2511 85.7295 59.5248C85.8452 59.7985 85.9 60.094 85.8901 60.391C85.8788 70.3397 85.8818 80.2883 85.8991 90.237C85.8991 91.037 85.6661 91.237 84.8801 91.231C74.2928 91.2037 63.7041 91.2037 53.1141 91.231C52.2561 91.231 51.9931 91.061 52.0001 90.149C52.0431 82.99 52.0231 75.828 52.0231 68.669L52.0221 68.671ZM54.7531 68.642C54.7531 74.898 54.7711 81.154 54.7331 87.41C54.7331 88.304 54.9731 88.529 55.8611 88.526C64.5645 88.492 73.2695 88.492 81.9761 88.526C82.8071 88.526 83.1621 88.413 83.1561 87.444C83.1128 79.644 83.1128 71.844 83.1561 64.044C83.1561 63.086 82.8231 62.953 81.9941 62.959C78.0751 62.995 74.1551 62.945 70.2381 62.997C69.3011 63.011 68.9661 62.863 68.9861 61.806C69.0651 57.812 68.9971 53.816 69.0341 49.822C69.0411 48.982 68.7871 48.722 67.9401 48.728C63.9071 48.766 59.8751 48.776 55.8401 48.728C54.9051 48.717 54.7261 49.038 54.7311 49.887C54.7631 56.143 54.7471 62.399 54.7471 68.655L54.7531 68.642ZM71.7341 49.715C71.7341 52.975 71.7341 56.345 71.7341 59.715C71.7341 60.301 72.1231 60.247 72.5041 60.247H82.2721L71.7321 49.718L71.7341 49.715Z" fill="#493BBB"/>
<path d="M68.893 78.5492C65.501 78.5492 62.11 78.5222 58.718 78.5692C57.851 78.5802 57.633 78.2972 57.645 77.4692C57.6883 74.4172 57.6883 71.3642 57.645 68.3102C57.631 67.4432 57.919 67.2412 58.745 67.2442C65.5283 67.2735 72.311 67.2735 79.093 67.2442C79.888 67.2442 80.216 67.3802 80.2 68.2812C80.141 71.3692 80.15 74.4622 80.2 77.5512C80.211 78.3512 79.971 78.5702 79.186 78.5612C75.758 78.5232 72.328 78.5452 68.9 78.5452L68.893 78.5492ZM68.934 75.6962C71.456 75.6962 73.981 75.6762 76.503 75.7102C77.203 75.7192 77.526 75.5902 77.486 74.7932C77.42 73.4782 77.427 72.1552 77.486 70.8402C77.518 70.1022 77.212 69.9642 76.562 69.9662C71.4787 69.9842 66.3957 69.9842 61.313 69.9662C60.548 69.9662 60.339 70.2402 60.362 70.9552C60.405 72.1962 60.412 73.4412 60.362 74.6822C60.33 75.4542 60.562 75.7332 61.37 75.7172C63.892 75.6672 66.415 75.6992 68.937 75.6992L68.934 75.6962Z" fill="#493BBB"/>
<path d="M61.9183 60.0882C60.7903 60.0882 59.6633 60.0522 58.5383 60.1022C57.8273 60.1312 57.5833 59.8482 57.6623 59.1802C57.6873 58.9937 57.6873 58.8047 57.6623 58.6182C57.5103 57.6492 57.8523 57.3122 58.8803 57.3552C60.9803 57.4432 63.0873 57.4122 65.1903 57.3642C65.9013 57.3482 66.0823 57.5862 66.0903 58.2642C66.1153 60.0932 66.1443 60.0932 64.2903 60.0932H61.9233L61.9183 60.0882Z" fill="#493BBB"/>
<path d="M76.0543 85.5924C74.9603 85.5924 73.8673 85.5514 72.7753 85.6064C72.0753 85.6404 71.7863 85.4974 71.8013 84.7064C71.8373 82.8724 71.7903 82.8724 73.6463 82.8724C75.5303 82.8724 77.4163 82.8974 79.2973 82.8584C79.9543 82.8444 80.2073 82.9694 80.1973 83.7094C80.1683 85.5934 80.2133 85.5934 78.3153 85.5934H76.0523L76.0543 85.5924Z" fill="#493BBB"/>
<path d="M61.9895 51.6763C63.0405 51.6763 64.0895 51.7013 65.1435 51.6673C65.8025 51.6473 66.1435 51.8553 66.0785 52.5673C66.0558 52.942 66.0558 53.3177 66.0785 53.6923C66.0985 54.2043 65.8955 54.4373 65.3535 54.4353C63.0261 54.4193 60.6978 54.4193 58.3685 54.4353C57.8205 54.4353 57.6325 54.1883 57.6685 53.6773C57.6968 53.3406 57.6968 53.002 57.6685 52.6653C57.5915 51.9403 57.8745 51.6443 58.6215 51.6713C59.7465 51.7143 60.8745 51.6823 61.9995 51.6823L61.9895 51.6763Z" fill="#493BBB"/>
</g>
<defs>
<clipPath id="clip0_1438_239">
<rect width="137.5" height="137.5" fill="white"/>
</clipPath>
</defs>
</svg>
