<svg width="138" height="138" viewBox="0 0 138 138" fill="none" xmlns="http://www.w3.org/2000/svg">
<g clip-path="url(#clip0_1438_45)">
<path d="M136.086 68.7497L68.75 1.41406L1.41435 68.7497L68.75 136.085L136.086 68.7497Z" stroke="#493BBB" stroke-width="2"/>
<path d="M68.9216 90.4276C63.8856 90.4276 58.8476 90.4146 53.8116 90.4406C53.0456 90.4406 52.7116 90.4296 53.0116 89.4786C54.2276 85.6156 55.3786 81.7316 56.4986 77.8406C56.6986 77.1406 57.0146 76.9726 57.7036 76.9746C65.241 76.9986 72.778 76.9986 80.3147 76.9746C80.9217 76.9746 81.2737 77.0596 81.4697 77.7386C82.5943 81.628 83.7546 85.5073 84.9506 89.3766C85.2186 90.2426 85.0726 90.4536 84.1396 90.4446C79.0636 90.4046 73.9946 90.4276 68.9216 90.4276ZM68.9886 87.8276C72.8976 87.8276 76.8067 87.8106 80.7187 87.8426C81.4627 87.8496 81.6937 87.6926 81.4557 86.9426C80.7727 84.7716 80.1066 82.5966 79.4866 80.4056C79.3016 79.7506 78.9707 79.5916 78.3297 79.5946C72.1037 79.6166 65.877 79.6143 59.6497 79.5876C59.5107 79.5683 59.3693 79.5771 59.2339 79.6135C59.0984 79.6499 58.9716 79.713 58.861 79.7993C58.7504 79.8855 58.6583 79.9931 58.59 80.1157C58.5217 80.2382 58.4788 80.3732 58.4636 80.5126C57.8636 82.5946 57.2496 84.6696 56.5906 86.7316C56.3336 87.5316 56.3496 87.8676 57.3696 87.8516C61.2416 87.7926 65.1156 87.8276 68.9886 87.8276Z" fill="#493BBB"/>
<path d="M60.8869 66.0309C60.8934 64.9658 61.1097 63.9125 61.5233 62.9311C61.937 61.9497 62.5399 61.0593 63.2976 60.3109C64.0553 59.5624 64.953 58.9706 65.9395 58.5691C66.926 58.1676 67.9819 57.9643 69.0469 57.9709C70.1119 57.9774 71.1652 58.1937 72.1466 58.6073C73.1281 59.021 74.0184 59.6238 74.7669 60.3816C75.5153 61.1393 76.1072 62.037 76.5087 63.0235C76.9102 64.01 77.1134 65.0658 77.1069 66.1309C77.0936 68.2818 76.2265 70.3393 74.6962 71.8509C73.1659 73.3624 71.0978 74.2041 68.9469 74.1909C66.796 74.1776 64.7384 73.3104 63.2269 71.7801C61.7153 70.2498 60.8736 68.1818 60.8869 66.0309ZM68.8989 71.4309C69.6143 71.4494 70.3263 71.326 70.9938 71.0679C71.6612 70.8097 72.271 70.422 72.7878 69.9269C73.3046 69.4318 73.7182 68.8393 74.0047 68.1835C74.2913 67.5278 74.4451 66.8217 74.4573 66.1062C74.4696 65.3906 74.3399 64.6797 74.0759 64.0146C73.8119 63.3494 73.4188 62.7431 72.9192 62.2307C72.4196 61.7183 71.8234 61.3099 71.1651 61.0291C70.5069 60.7484 69.7995 60.6008 69.0839 60.5949C68.3685 60.5763 67.6565 60.6997 66.989 60.9578C66.3215 61.216 65.7118 61.6038 65.195 62.0988C64.6782 62.5939 64.2646 63.1864 63.978 63.8422C63.6915 64.4979 63.5376 65.204 63.5254 65.9195C63.5132 66.6351 63.6428 67.346 63.9068 68.0111C64.1709 68.6763 64.564 69.2826 65.0636 69.795C65.5632 70.3074 66.1593 70.7158 66.8176 70.9966C67.4759 71.2773 68.1832 71.4249 68.8989 71.4309Z" fill="#493BBB"/>
<path d="M78.5866 53.7268C78.5914 52.8455 78.7698 51.9738 79.1116 51.1615C79.4533 50.3491 79.9517 49.612 80.5784 48.9923C81.205 48.3725 81.9475 47.8823 82.7636 47.5495C83.5797 47.2168 84.4533 47.048 85.3346 47.0528C86.2159 47.0577 87.0876 47.2361 87.9 47.5778C88.7123 47.9196 89.4494 48.418 90.0691 49.0446C90.6889 49.6712 91.1791 50.4138 91.5119 51.2298C91.8447 52.0459 92.0134 52.9195 92.0086 53.8008C92.0181 54.6914 91.8502 55.575 91.5148 56.4001C91.1793 57.2251 90.6831 57.9752 90.0549 58.6065C89.4267 59.2379 88.6791 59.7379 87.8557 60.0774C87.0323 60.417 86.1496 60.5892 85.259 60.5842C84.3683 60.5791 83.4876 60.3969 82.6681 60.0481C81.8486 59.6992 81.1068 59.1908 80.4858 58.5524C79.8647 57.9139 79.377 57.1583 79.0509 56.3295C78.7249 55.5007 78.567 54.6153 78.5866 53.7248V53.7268ZM81.2166 53.7618C81.2119 54.2983 81.3128 54.8304 81.5138 55.3278C81.7147 55.8253 82.0116 56.2782 82.3876 56.6609C82.7636 57.0436 83.2113 57.3485 83.7051 57.5581C84.1989 57.7678 84.7291 57.8781 85.2656 57.8828C85.802 57.8876 86.3342 57.7866 86.8316 57.5857C87.329 57.3847 87.782 57.0878 88.1647 56.7118C88.5473 56.3358 88.8522 55.8882 89.0619 55.3944C89.2715 54.9006 89.3819 54.3703 89.3866 53.8338C89.4023 53.2909 89.3096 52.7502 89.1137 52.2435C88.9179 51.7369 88.6229 51.2744 88.2461 50.8831C87.8693 50.4919 87.4182 50.1798 86.9192 49.9651C86.4203 49.7503 85.8835 49.6373 85.3403 49.6327C84.7971 49.628 84.2585 49.7318 83.7559 49.9379C83.2533 50.1441 82.797 50.4484 82.4135 50.8331C82.03 51.2178 81.7272 51.6752 81.5227 52.1785C81.3182 52.6817 81.2162 53.2207 81.2226 53.7638L81.2166 53.7618Z" fill="#493BBB"/>
<path d="M54.0034 60.5262C52.2094 60.5119 50.4942 59.7874 49.2332 58.5112C47.9722 57.235 47.2682 55.5112 47.2754 53.7172C47.2879 51.9232 48.0125 50.2077 49.2898 48.9481C50.5671 47.6884 52.2925 46.9877 54.0864 47.0002C55.8804 47.0126 57.5959 47.7372 58.8555 49.0145C60.1152 50.2918 60.8159 52.0172 60.8034 53.8112C60.7995 54.6992 60.6204 55.5777 60.2762 56.3964C59.9321 57.215 59.4298 57.9577 58.798 58.5818C58.1663 59.2059 57.4176 59.6992 56.5948 60.0333C55.7721 60.3675 54.8915 60.536 54.0034 60.5292V60.5262ZM54.0404 57.9182C55.1206 57.9042 56.154 57.475 56.9263 56.7197C57.6985 55.9643 58.1505 54.9408 58.1884 53.8612C58.1739 52.7623 57.7365 51.7113 56.9672 50.9265C56.1979 50.1418 55.1558 49.6836 54.0574 49.6472C52.9766 49.6522 51.9415 50.0837 51.1773 50.848C50.413 51.6122 49.9814 52.6474 49.9764 53.7282C49.9615 54.2721 50.0555 54.8136 50.253 55.3207C50.4505 55.8278 50.7474 56.2902 51.1262 56.6808C51.5051 57.0714 51.9583 57.3823 52.4591 57.5952C52.9599 57.808 53.4983 57.9185 54.0424 57.9202L54.0404 57.9182Z" fill="#493BBB"/>
<path d="M52.1012 63.3209C53.9092 63.3209 55.7192 63.3379 57.5262 63.3099C58.1462 63.2989 58.4112 63.3399 58.2682 64.1239C57.9352 65.9299 57.9942 65.9399 56.1882 65.9399C53.7282 65.9399 51.2672 65.9789 48.8092 65.9179C48.4769 65.8681 48.1383 65.9499 47.8654 66.1457C47.5924 66.3416 47.4065 66.6362 47.3472 66.9669C46.6232 69.0469 45.8112 71.0959 45.0352 73.1559C44.7359 73.6135 44.2907 73.9565 43.7719 74.1292C43.253 74.3018 42.691 74.294 42.1772 74.1069C41.8512 73.8889 42.0602 73.6409 42.1362 73.4409C43.3362 70.2259 44.5552 67.0189 45.7362 63.7999C45.9272 63.2779 46.2782 63.3189 46.6742 63.3189C48.4822 63.3189 50.2906 63.3189 52.0992 63.3189L52.1012 63.3209Z" fill="#493BBB"/>
<path d="M85.8326 63.3199C87.6406 63.3199 89.4506 63.3349 91.2576 63.3089C91.7836 63.3019 92.1126 63.3979 92.3166 63.9589C93.468 67.1129 94.6443 70.2566 95.8456 73.3899C96.0656 73.9619 95.9846 74.1409 95.3516 74.1799C93.3566 74.3019 93.3586 74.3209 92.6516 72.4109C91.9596 70.5489 91.2396 68.6979 90.5846 66.8219C90.5185 66.5287 90.3425 66.2721 90.0929 66.1046C89.8433 65.9372 89.539 65.8719 89.2426 65.9219C86.4956 65.9719 83.7426 65.9089 80.9976 65.9609C80.1866 65.9759 79.9206 65.7609 79.8336 64.9339C79.6636 63.3129 79.5986 63.3199 81.1696 63.3199H85.8356H85.8326Z" fill="#493BBB"/>
</g>
<defs>
<clipPath id="clip0_1438_45">
<rect width="137.5" height="137.5" fill="white"/>
</clipPath>
</defs>
</svg>
