<svg width="138" height="138" viewBox="0 0 138 138" fill="none" xmlns="http://www.w3.org/2000/svg">
<g clip-path="url(#clip0_1438_59)">
<path d="M136.086 68.7497L68.75 1.41406L1.41435 68.7497L68.75 136.085L136.086 68.7497Z" stroke="#493BBB" stroke-width="2"/>
<path d="M61.3463 68.9191C61.3463 62.3601 61.3633 55.8011 61.3253 49.2421C61.3193 48.3201 61.4993 47.9931 62.5093 48.0001C69.5587 48.0481 76.607 48.0481 83.6543 48.0001C84.5463 48.0001 84.8543 48.1761 84.8333 49.1351C84.7703 52.7281 84.8433 56.3221 84.7853 59.9151C84.7683 60.8911 84.9783 61.2351 86.0253 61.2031C88.7443 61.1251 91.4673 61.2091 94.1893 61.1571C95.0213 61.1401 95.3143 61.3041 95.3123 62.2191C95.2743 71.0804 95.2723 79.9424 95.3063 88.8051C95.3063 89.6051 95.1243 89.8591 94.2693 89.8571C83.6273 89.8238 72.9847 89.8238 62.3413 89.8571C61.4633 89.8571 61.3273 89.5831 61.3313 88.8011C61.3603 82.1731 61.3483 75.5431 61.3483 68.9151L61.3463 68.9191ZM63.8663 69.0071C63.8663 74.7951 63.8723 80.5831 63.8563 86.3691C63.8563 87.0271 63.9313 87.3561 64.7483 87.3541C73.779 87.3228 82.8107 87.3228 91.8433 87.3541C92.6063 87.3541 92.7653 87.0981 92.7633 86.3971C92.7427 79.1444 92.7453 71.8928 92.7713 64.6421C92.7713 63.8021 92.4713 63.6831 91.7493 63.6931C88.9253 63.7291 86.0993 63.6681 83.2753 63.7311C82.4103 63.7501 82.2573 63.4711 82.2653 62.6841C82.3053 59.0241 82.2573 55.3621 82.3033 51.7031C82.3133 50.8171 82.1253 50.5091 81.1633 50.5191C75.794 50.5691 70.4243 50.5691 65.0543 50.5191C64.0613 50.5091 63.8393 50.8191 63.8453 51.7551C63.8853 57.5001 63.8663 63.2541 63.8663 69.0071Z" fill="#493BBB"/>
<path d="M43.0231 71.502C43.0231 65.745 43.0381 59.991 43.0041 54.234C43.0041 53.453 43.1991 53.189 43.9931 53.234C45.0701 53.301 46.1591 53.188 47.2361 53.27C48.1101 53.335 48.3021 53 48.2561 52.204C48.1911 51.092 48.2691 49.971 48.2291 48.856C48.2121 48.231 48.4121 47.954 49.0621 48.021C49.4114 48.0498 49.7625 48.0511 50.1121 48.025C50.6191 47.996 50.7701 48.225 50.7591 48.714C50.7321 49.969 50.7691 51.226 50.7401 52.481C50.7271 53.059 50.9101 53.288 51.5171 53.269C52.8077 53.229 54.0981 53.229 55.3881 53.269C56.0061 53.288 56.1741 53.036 56.1611 52.469C56.1361 51.283 56.1901 50.096 56.1381 48.912C56.1091 48.233 56.3061 47.93 57.0121 48.022C57.2897 48.0565 57.5705 48.0565 57.8481 48.022C58.5081 47.944 58.6821 48.25 58.6731 48.868C58.6461 50.892 58.6371 52.915 58.6731 54.937C58.6861 55.645 58.4151 55.817 57.7531 55.813C54.0201 55.788 50.2871 55.83 46.5531 55.779C45.6941 55.766 45.5271 56.047 45.5291 56.841C45.5544 66.6783 45.5544 76.5156 45.5291 86.353C45.5291 87.116 45.6901 87.363 46.5011 87.353C50.2341 87.305 53.9671 87.378 57.7011 87.307C59.0061 87.282 58.5911 88.116 58.6601 88.763C58.7381 89.494 58.6101 89.877 57.6751 89.863C53.1061 89.804 48.5331 89.813 43.9641 89.863C43.1531 89.871 42.9961 89.639 43.0001 88.876C43.0351 83.082 43.0211 77.293 43.0211 71.502H43.0231Z" fill="#493BBB"/>
<path d="M52.1087 66.2569C51.0637 66.2569 50.0157 66.2359 48.9707 66.2649C48.4487 66.2799 48.2207 66.1439 48.2287 65.5649C48.2561 63.4742 48.2561 61.3829 48.2287 59.2909C48.2227 58.6999 48.4237 58.5099 49.0187 58.5199C51.1094 58.5512 53.2014 58.5512 55.2947 58.5199C55.8437 58.5119 56.0367 58.6879 56.0317 59.2299C56.0131 61.3559 56.0131 63.4822 56.0317 65.6089C56.0317 66.1239 55.8317 66.2709 55.3487 66.2609C54.2677 66.2379 53.1867 66.2529 52.1057 66.2549L52.1087 66.2569ZM53.4897 62.2279C53.6577 61.4649 53.4817 60.9329 52.2997 61.0149C50.7537 61.1219 50.8107 61.0439 50.7267 62.3769C50.6617 63.4119 50.9067 63.8519 52.0547 63.7639C53.6827 63.6399 53.4647 63.9149 53.4897 62.2279Z" fill="#493BBB"/>
<path d="M52.1741 68.963C53.1841 68.963 54.1961 68.984 55.2051 68.955C55.7691 68.938 56.0391 69.108 56.0351 69.715C56.0164 71.8057 56.0164 73.8957 56.0351 75.985C56.0411 76.597 55.7821 76.754 55.2161 76.748C53.1611 76.725 51.1041 76.719 49.0491 76.748C48.3871 76.758 48.2221 76.492 48.2301 75.883C48.2571 73.864 48.2681 71.842 48.2301 69.823C48.2151 69.111 48.4831 68.923 49.1451 68.952C50.1531 68.996 51.1641 68.962 52.1761 68.965L52.1741 68.963ZM52.2351 74.194C53.0181 74.343 53.6351 74.234 53.5171 72.958C53.3871 71.483 53.4881 71.475 52.1891 71.475C51.2271 71.475 50.7461 71.9284 50.7461 72.835C50.7461 73.7417 51.2424 74.1957 52.2351 74.197V74.194Z" fill="#493BBB"/>
<path d="M90.0155 70.2657C90.0155 71.3467 89.9945 72.4257 90.0235 73.5067C90.0365 74.0007 89.8725 74.1917 89.3695 74.1897C87.2435 74.1747 85.1195 74.1707 82.9925 74.1897C82.4435 74.1897 82.2715 73.9897 82.2785 73.4507C82.3015 71.3267 82.2975 69.2007 82.2785 67.0737C82.2785 66.5817 82.4465 66.3887 82.9445 66.3927C85.0705 66.4077 87.1945 66.4137 89.3215 66.3927C89.8825 66.3867 90.0375 66.5997 90.0215 67.1317C89.9875 68.1747 90.0115 69.2227 90.0115 70.2677L90.0155 70.2657ZM87.5155 70.3287C87.5155 69.3794 87.0939 68.9037 86.2505 68.9017C84.8135 68.9017 84.8095 68.9017 84.8135 70.1777C84.8135 71.8137 84.6755 71.6397 86.1505 71.6377C87.7045 71.6377 87.4965 71.7907 87.5155 70.3287Z" fill="#493BBB"/>
<path d="M73.1122 63.7334C74.1552 63.7334 75.2012 63.7584 76.2422 63.7234C76.7872 63.7044 76.9772 63.8884 76.9712 64.4334C76.9505 66.5554 76.9505 68.6767 76.9712 70.7974C76.9772 71.3734 76.7302 71.4844 76.2172 71.4804C74.1312 71.4574 72.0422 71.4534 69.9552 71.4804C69.3712 71.4884 69.1612 71.3194 69.1692 70.7204C69.1965 68.6337 69.1965 66.5474 69.1692 64.4614C69.1612 63.8374 69.4182 63.7034 69.9782 63.7224C71.0212 63.7584 72.0642 63.7324 73.1082 63.7324L73.1122 63.7334ZM73.2462 68.9604C74.0462 69.1404 74.5342 68.9124 74.4462 67.7534C74.3392 66.2534 74.4212 66.2534 73.1462 66.2534C72.1668 66.2534 71.6765 66.6947 71.6752 67.5774C71.6752 68.5007 72.1955 68.9624 73.2362 68.9624L73.2462 68.9604Z" fill="#493BBB"/>
<path d="M82.2887 80.7828C82.2887 79.7018 82.3117 78.6208 82.2787 77.5418C82.2637 77.0328 82.4357 76.8878 82.9367 76.8928C85.0987 76.9158 87.2587 76.9238 89.4207 76.8928C89.9847 76.8848 90.0277 77.1188 90.0207 77.5718C90.0017 79.6978 89.9957 81.8248 90.0207 83.9508C90.0287 84.4888 89.8887 84.6648 89.3297 84.6568C87.2037 84.6258 85.0767 84.6208 82.9507 84.6568C82.3577 84.6668 82.2597 84.4348 82.2737 83.9218C82.3047 82.8768 82.2817 81.8308 82.2817 80.7858L82.2887 80.7828ZM86.1827 79.4628C85.0517 79.1358 84.7207 79.5868 84.7767 80.7068C84.8227 81.6328 84.7847 82.2678 86.0607 82.1518C87.7217 82.0008 87.4287 82.3358 87.5287 80.7148C87.5957 79.6468 87.3487 79.0978 86.1817 79.4638L86.1827 79.4628Z" fill="#493BBB"/>
<path d="M73.0011 61.0402C71.9911 61.0402 70.9821 61.0172 69.9741 61.0482C69.4041 61.0672 69.1651 60.8952 69.1741 60.2852C69.2014 58.1965 69.2014 56.1085 69.1741 54.0212C69.1681 53.4052 69.4481 53.2482 69.9971 53.2522C72.0501 53.2672 74.1051 53.2772 76.1581 53.2522C76.8281 53.2422 76.9811 53.5432 76.9731 54.1382C76.9521 56.1222 76.9441 58.1062 76.9731 60.0892C76.9861 60.7972 76.7781 61.0992 76.0261 61.0592C75.0201 61.0052 74.0091 61.0462 72.9991 61.0462L73.0011 61.0402ZM74.4231 57.0702C74.5231 56.3512 74.5381 55.6452 73.2061 55.7702C71.6961 55.9062 71.6851 55.7992 71.6831 57.0702C71.6831 58.0522 72.1264 58.5432 73.0131 58.5432C73.9517 58.5432 74.4217 58.0545 74.4231 57.0772V57.0702Z" fill="#493BBB"/>
<path d="M76.962 78.0615C76.962 79.1045 76.945 80.1505 76.968 81.1935C76.981 81.7715 76.759 81.9936 76.168 81.9856C74.0794 81.9602 71.9907 81.9602 69.902 81.9856C69.362 81.9916 69.167 81.8036 69.171 81.2586C69.1917 79.1699 69.1917 77.0819 69.171 74.9946C69.165 74.4106 69.371 74.1836 69.957 74.1876C72.0457 74.2042 74.1344 74.2042 76.223 74.1876C76.755 74.1876 76.977 74.3875 76.967 74.9295C76.946 75.9725 76.962 77.0185 76.962 78.0615ZM73.074 76.7355C72.148 76.7355 71.6844 77.1689 71.683 78.0355C71.683 78.9962 72.137 79.4766 73.045 79.4766C74.423 79.4766 74.428 79.4765 74.421 78.1655C74.413 76.5785 74.603 76.7465 73.074 76.7355Z" fill="#493BBB"/>
</g>
<defs>
<clipPath id="clip0_1438_59">
<rect width="137.5" height="137.5" fill="white"/>
</clipPath>
</defs>
</svg>
