<svg width="138" height="138" viewBox="0 0 138 138" fill="none" xmlns="http://www.w3.org/2000/svg">
<g clip-path="url(#clip0_1438_82)">
<path d="M136.086 68.7497L68.75 1.41406L1.41435 68.7497L68.75 136.085L136.086 68.7497Z" stroke="#493BBB" stroke-width="2"/>
<path d="M69 93.1821C62.41 93.1821 55.823 93.1681 49.233 93.1991C48.364 93.2021 48 93.1021 48 92.0651C48.0413 78.7651 48.0437 65.4651 48.007 52.1651C48.007 51.2651 48.236 50.9871 49.146 51.0141C51.354 51.0771 53.569 50.9611 55.774 51.0651C56.947 51.1241 57.208 50.7021 57.133 49.6421C57.049 48.4421 57.15 47.2311 57.102 46.0271C57.068 45.2431 57.343 44.9801 58.134 45.0021C60.506 45.0601 60.072 44.8261 60.105 46.8741C60.122 47.9191 60.168 48.9681 60.091 50.0061C60.023 50.8961 60.385 51.0601 61.191 51.0561C66.495 51.0201 71.798 51.0194 77.1 51.0541C77.937 51.0541 78.227 50.8391 78.181 49.9831C78.111 48.6611 78.205 47.3311 78.147 46.0061C78.114 45.1881 78.43 44.9761 79.2 45.0021C81.48 45.0651 81.14 44.7751 81.169 46.8871C81.183 47.9321 81.212 48.9791 81.157 50.0191C81.116 50.7941 81.35 51.0731 82.166 51.0571C84.495 51.0061 86.828 51.0691 89.156 51.0231C89.962 51.0091 90.266 51.1891 90.264 52.0771C90.2353 65.4544 90.2353 78.8327 90.264 92.2121C90.264 93.0181 90.032 93.2011 89.255 93.1991C82.506 93.1681 75.755 93.1821 69.005 93.1821H69ZM69.063 90.2121C74.726 90.2121 80.389 90.1881 86.053 90.2341C87.066 90.2411 87.332 89.9341 87.327 88.9341C87.2883 80.7394 87.2907 72.5457 87.334 64.3531C87.341 63.2381 86.977 63.0531 85.966 63.0531C74.7193 63.0871 63.4723 63.0871 52.225 63.0531C51.225 63.0531 50.941 63.3091 50.946 64.3201C50.9873 72.5147 50.9873 80.7084 50.946 88.9011C50.939 90.0011 51.289 90.2401 52.317 90.2311C57.901 90.1851 63.484 90.2091 69.065 90.2091L69.063 90.2121ZM69.131 60.1251C74.756 60.1251 80.383 60.1061 86.007 60.1421C86.977 60.1491 87.394 59.9031 87.324 58.8631C87.2407 57.6595 87.2407 56.4516 87.324 55.2481C87.394 54.2481 86.998 54.0481 86.084 54.0561C81.543 54.0971 77.004 54.0751 72.463 54.0751C65.753 54.0751 59.042 54.1041 52.332 54.0481C51.191 54.0381 50.86 54.3831 50.949 55.4721C51.0395 56.5535 51.0395 57.6406 50.949 58.7221C50.849 59.8541 51.27 60.1551 52.375 60.1461C57.959 60.0951 63.545 60.1221 69.131 60.1221V60.1251Z" fill="#493BBB"/>
<path d="M58.8822 87.55C58.2382 87.581 58.2232 87.28 58.3412 86.783C58.9182 84.368 59.4702 81.945 60.0252 79.525C60.1472 79.14 60.3786 78.7988 60.6912 78.543C65.0839 74.139 69.4742 69.732 73.8622 65.322C74.2532 64.922 74.4802 64.847 74.9092 65.288C76.7605 67.1873 78.6349 69.059 80.5322 70.903C81.0172 71.371 80.8072 71.612 80.4552 71.962C76.0345 76.3366 71.6165 80.7153 67.2012 85.098C67.0012 85.298 66.8082 85.573 66.5662 85.636C64.0112 86.295 61.4432 86.917 58.8812 87.549L58.8822 87.55ZM62.7142 83.602C63.7952 83.24 65.0792 83.247 66.0582 82.159C67.7472 80.279 69.6102 78.559 71.4052 76.773C73.0752 75.115 73.0462 75.151 71.3712 73.465C70.7442 72.833 70.3942 72.941 69.8362 73.516C67.9362 75.478 66.0552 77.468 64.0302 79.297C62.9975 80.3069 62.3454 81.6426 62.1842 83.078C62.0972 83.517 62.1432 83.686 62.7152 83.604L62.7142 83.602ZM74.4082 69.125C73.8775 69.432 73.4185 69.849 73.0622 70.348C72.6622 70.775 73.1622 70.973 73.3712 71.207C73.7424 71.6218 74.1356 72.0163 74.5492 72.389C74.7852 72.604 75.0172 73.079 75.4152 72.71C75.8692 72.29 76.4502 71.952 76.6212 71.301C76.0175 70.4502 75.2675 69.7134 74.4062 69.125H74.4082Z" fill="#493BBB"/>
</g>
<defs>
<clipPath id="clip0_1438_82">
<rect width="137.5" height="137.5" fill="white"/>
</clipPath>
</defs>
</svg>
