<svg xmlns="http://www.w3.org/2000/svg" stroke="currentColor" stroke-width="0" viewBox="0 0 32 32" height="1em" width="1em" fill="#989898"><path d="M8.6425781 4C7.1835781 4 6 5.181625 6 6.640625s1.182625 2.6679688 2.640625 2.6679688 2.642578-1.2089688 2.642578-2.6679688C11.283203 5.182625 10.101578 4 8.6425781 4zm12.8925779 7c-2.219 0-3.488656 1.160453-4.097656 2.314453h-.064453v-2.003906H13V26h4.556641v-7.271484c0-1.916.144625-3.767578 2.515625-3.767578 2.337-.000001 2.371093 2.184671 2.371093 3.888671V26H27v-8.068359C27 13.983641 26.151156 11 21.535156 11zm-15.1718748.310547V26h4.5605468V11.310547H6.3632812z" stroke="none"/></svg>