<svg id="Capa_1" data-name="Capa 1" xmlns="http://www.w3.org/2000/svg" xmlns:xlink="http://www.w3.org/1999/xlink" width="157.2" height="61.212" viewBox="0 0 157.2 61.212">
  <defs>
    <clipPath id="clip-path">
      <path id="Trazado_1" data-name="Trazado 1" d="M25.472,34.844H10.738l22.6-27.182V0H.02A7.879,7.879,0,0,0,7.868,7.3H23.263L0,34.485v7.66H33.322a7.88,7.88,0,0,0-7.849-7.3Z" fill="none"/>
    </clipPath>
    <linearGradient id="linear-gradient" x1="0.014" y1="1.319" x2="1.014" y2="1.319" gradientUnits="objectBoundingBox">
      <stop offset="0" stop-color="#fff"/>
      <stop offset="0.44" stop-color="#fff"/>
      <stop offset="0.82" stop-color="#fff"/>
      <stop offset="1" stop-color="#fff"/>
    </linearGradient>
    <clipPath id="clip-path-2">
      <path id="Trazado_2" data-name="Trazado 2" d="M398.981,131.932H392.64V99.41h6.341Z" transform="translate(-392.64 -99.41)" fill="none"/>
    </clipPath>
    <clipPath id="clip-path-3">
      <path id="Trazado_3" data-name="Trazado 3" d="M526.407,131.932V115.706a9.664,9.664,0,0,0-.784-3.869,10.006,10.006,0,0,0-5.216-5.272,9.307,9.307,0,0,0-3.818-.787,9.537,9.537,0,0,0-3.852.787,10.036,10.036,0,0,0-3.136,2.123,9.617,9.617,0,0,0-2.08,3.149,10,10,0,0,0-.75,3.869v16.226h-6.34V115.706a16.057,16.057,0,0,1,1.262-6.334,15.892,15.892,0,0,1,3.478-5.169,17.141,17.141,0,0,1,5.147-3.492,15.774,15.774,0,0,1,12.546,0,17.169,17.169,0,0,1,5.148,3.492,16.14,16.14,0,0,1,4.739,11.5v16.226h-6.34Z" transform="translate(-500.43 -99.41)" fill="none"/>
    </clipPath>
    <clipPath id="clip-path-4">
      <path id="Trazado_4" data-name="Trazado 4" d="M904.2,127.14a15.919,15.919,0,0,1-5.352,3.595,16.139,16.139,0,0,1-12.2,0,15.916,15.916,0,0,1-5.352-3.595,14.8,14.8,0,0,1-3.545-5.341,16.915,16.915,0,0,1-1.16-6.128,16.626,16.626,0,0,1,1.16-6.093,15.565,15.565,0,0,1,3.545-5.376,15.944,15.944,0,0,1,5.352-3.595,16.139,16.139,0,0,1,12.2,0A15.962,15.962,0,0,1,904.2,104.2l-4.5,4.519a9.618,9.618,0,0,0-4.841-2.842,9.144,9.144,0,0,0-4.841.274,10.966,10.966,0,0,0-6.716,6.744,9.586,9.586,0,0,0-.307,4.9,10.357,10.357,0,0,0,6.034,7.052,9.958,9.958,0,0,0,7.431,0,9.493,9.493,0,0,0,3.239-2.156l4.5,4.45Z" transform="translate(-876.59 -99.41)" fill="none"/>
    </clipPath>
    <clipPath id="clip-path-5">
      <path id="Trazado_5" data-name="Trazado 5" d="M1227.282,6.188a21.309,21.309,0,0,0-6.674-4.535,20.9,20.9,0,0,0-16.244,0A21.235,21.235,0,0,0,1193.184,12.9a20.644,20.644,0,0,0-1.634,8.177,20.644,20.644,0,0,0,1.633,8.176,21.235,21.235,0,0,0,11.182,11.253,20.9,20.9,0,0,0,16.244,0,21.239,21.239,0,0,0,11.182-11.252,20.678,20.678,0,0,0,1.633-8.177,20.685,20.685,0,0,0-1.633-8.177,21.457,21.457,0,0,0-4.507-6.716Zm-2.25,20.28a14.105,14.105,0,0,1-2.932,4.377,13.417,13.417,0,0,1-9.615,3.958,13.8,13.8,0,0,1-5.347-1.048,13.222,13.222,0,0,1-7.248-7.294,14.009,14.009,0,0,1-1.042-5.378,13.565,13.565,0,0,1,3.933-9.669,13.954,13.954,0,0,1,4.35-2.952,13.546,13.546,0,0,1,10.668,0,14.03,14.03,0,0,1,7.232,7.277,13.21,13.21,0,0,1,1.093,5.343,13.53,13.53,0,0,1-1.091,5.386Z" transform="translate(-1191.55 -0.01)" fill="none"/>
    </clipPath>
  </defs>
  <g id="Grupo_8" data-name="Grupo 8">
    <g id="Grupo_6" data-name="Grupo 6">
      <g id="Grupo_1" data-name="Grupo 1" clip-path="url(#clip-path)">
        <rect id="Rectángulo_3" data-name="Rectángulo 3" width="176.194" height="55.594" transform="translate(163.772 47.763) rotate(180)" fill="url(#linear-gradient)"/>
      </g>
      <g id="Grupo_2" data-name="Grupo 2" transform="translate(38.003 9.622)" clip-path="url(#clip-path-2)">
        <rect id="Rectángulo_4" data-name="Rectángulo 4" width="176.194" height="55.594" transform="translate(125.769 38.141) rotate(180)" fill="url(#linear-gradient)"/>
      </g>
      <g id="Grupo_3" data-name="Grupo 3" transform="translate(48.435 9.622)" clip-path="url(#clip-path-3)">
        <rect id="Rectángulo_5" data-name="Rectángulo 5" width="176.194" height="55.594" transform="translate(115.337 38.141) rotate(180)" fill="url(#linear-gradient)"/>
      </g>
      <g id="Grupo_4" data-name="Grupo 4" transform="translate(84.843 9.622)" clip-path="url(#clip-path-4)">
        <rect id="Rectángulo_6" data-name="Rectángulo 6" width="176.194" height="55.594" transform="translate(78.929 38.141) rotate(180)" fill="url(#linear-gradient)"/>
      </g>
      <g id="Grupo_5" data-name="Grupo 5" transform="translate(115.327 0.001)" clip-path="url(#clip-path-5)">
        <rect id="Rectángulo_7" data-name="Rectángulo 7" width="176.194" height="55.594" transform="translate(48.445 47.762) rotate(180)" fill="url(#linear-gradient)"/>
      </g>
    </g>
    <g id="Grupo_7" data-name="Grupo 7" transform="translate(16.672 49.984)">
      <path id="Trazado_6" data-name="Trazado 6" d="M178.254,517.138v1.389a4.565,4.565,0,0,0-2.546-.839c-1.1,0-2.055.536-2.055,1.607,0,.941.752,1.389,2.228,2.055,1.636.724,2.952,1.419,2.952,3.169,0,1.981-1.62,3.14-3.573,3.14a5.067,5.067,0,0,1-3.009-1v-1.505A4.281,4.281,0,0,0,175.2,526.4c1.2,0,2.243-.637,2.243-1.794,0-1-.8-1.491-2.3-2.171-1.578-.708-2.85-1.361-2.85-3.067,0-1.867,1.5-2.937,3.4-2.937A5.05,5.05,0,0,1,178.254,517.138Z" transform="translate(-172.25 -516.43)" fill="url(#linear-gradient)"/>
      <path id="Trazado_7" data-name="Trazado 7" d="M261.259,520.079h-3.4V518.82h8.131v1.259h-3.386v9.505H261.26v-9.505Z" transform="translate(-249.574 -518.589)" fill="url(#linear-gradient)"/>
      <path id="Trazado_8" data-name="Trazado 8" d="M367.82,518.82h5.9v1.259h-4.558v3.428h4.225v1.187h-4.225v3.646h4.558v1.245h-5.9Z" transform="translate(-348.891 -518.589)" fill="url(#linear-gradient)"/>
      <path id="Trazado_9" data-name="Trazado 9" d="M461.65,518.82h5.9v1.259H463v3.428h4.225v1.187H463v3.646h4.558v1.245h-5.9Z" transform="translate(-433.64 -518.589)" fill="url(#linear-gradient)"/>
      <path id="Trazado_10" data-name="Trazado 10" d="M555.47,518.82h1.345v9.505h4.745v1.259H555.47Z" transform="translate(-518.379 -518.589)" fill="url(#linear-gradient)"/>
      <path id="Trazado_11" data-name="Trazado 11" d="M688.59,518.82h5.9v1.259h-4.558v3.732h4.341v1.23h-4.341v4.543H688.59Z" transform="translate(-638.615 -518.589)" fill="url(#linear-gradient)"/>
      <path id="Trazado_12" data-name="Trazado 12" d="M787.56,529.585h-1.722l-3.877-4.369h-.145v4.369H780.47V518.82h2.85c2.488,0,3.79,1.317,3.79,3.2,0,1.751-1.186,3.054-3.53,3.2Zm-4.442-5.5c1.866,0,2.619-.81,2.619-2.026s-.868-1.981-2.5-1.981h-1.418v4.008h1.3Z" transform="translate(-721.602 -518.589)" fill="url(#linear-gradient)"/>
      <path id="Trazado_13" data-name="Trazado 13" d="M875.97,529.585l-1.258-3.27H870.1l-1.258,3.27H867.42l4.225-10.765h1.52l4.254,10.765h-1.447Zm-5.44-4.471h3.733l-1.866-4.789Z" transform="translate(-800.136 -518.589)" fill="url(#linear-gradient)"/>
      <path id="Trazado_14" data-name="Trazado 14" d="M988.881,529.585H987.55L989.2,518.82h1.635l3,8.739h.015l2.908-8.739h1.664l1.636,10.765h-1.331l-1.3-8.84h-.029l-2.98,8.84h-1.2l-3.009-8.768h-.029l-1.287,8.768Z" transform="translate(-908.639 -518.589)" fill="url(#linear-gradient)"/>
      <path id="Trazado_15" data-name="Trazado 15" d="M1147.11,518.82h1.345v10.765h-1.345Z" transform="translate(-1052.756 -518.589)" fill="url(#linear-gradient)"/>
      <path id="Trazado_16" data-name="Trazado 16" d="M1207.481,529.585h-1.244l-5.947-8.595h-.015v8.595h-1.316V518.82h1.36l5.845,8.45h.015v-8.45h1.3Z" transform="translate(-1099.588 -518.589)" fill="url(#linear-gradient)"/>
      <path id="Trazado_17" data-name="Trazado 17" d="M1323.045,526.491a4.34,4.34,0,0,0,2.112-.478v-3.834h1.287v4.674a6.571,6.571,0,0,1-3.415.926,5.607,5.607,0,0,1,.029-11.2,6.314,6.314,0,0,1,3.1.781v1.432a5.642,5.642,0,0,0-3.038-.9,4.309,4.309,0,0,0-.073,8.594Z" transform="translate(-1206.853 -516.565)" fill="url(#linear-gradient)"/>
      <rect id="Rectángulo_8" data-name="Rectángulo 8" width="1.287" height="2.494" transform="translate(117.097 6.902) rotate(-90)" fill="url(#linear-gradient)"/>
    </g>
  </g>
</svg>
